<svg width="55" height="55" viewBox="0 0 55 55" fill="none" xmlns="http://www.w3.org/2000/svg">
<path d="M23.9932 29.1224V27.8367C23.9932 27.4751 24.2745 27.1938 24.6361 27.1938H38.7789C39.1405 27.1938 39.4218 27.4751 39.4218 27.8367V29.1224C39.4218 29.484 39.1405 29.7652 38.7789 29.7652H24.6361C24.2745 29.7652 23.9932 29.484 23.9932 29.1224Z" fill="white"/>
<path d="M24.6361 32.3367H38.7789C39.1405 32.3367 39.4218 32.6179 39.4218 32.9795V34.2652C39.4218 34.6268 39.1405 34.9081 38.7789 34.9081H24.6361C24.2745 34.9081 23.9932 34.6268 23.9932 34.2652V32.9795C23.9932 32.6179 24.2745 32.3367 24.6361 32.3367Z" fill="white"/>
<path d="M24.6361 37.4795H38.7789C39.1405 37.4795 39.4218 37.7608 39.4218 38.1224V39.4081C39.4218 39.7697 39.1405 40.0509 38.7789 40.0509H24.6361C24.2745 40.0509 23.9932 39.7697 23.9932 39.4081V38.1224C23.9932 37.7608 24.2745 37.4795 24.6361 37.4795Z" fill="white"/>
<path fill-rule="evenodd" clip-rule="evenodd" d="M16.2789 21.0647C12.1837 21.0647 8.86393 17.7449 8.86393 13.6497C8.86393 9.55455 12.1837 6.23474 16.2789 6.23474C19.7229 6.23474 22.6185 8.58271 23.4523 11.7652H36.2075C37.2722 11.7652 38.7588 12.388 39.5021 13.1313L45.77 19.3992C46.5133 20.1425 47.1361 21.6291 47.1361 22.6938V45.8367C47.1361 46.9014 46.2722 47.7652 45.2075 47.7652H18.2075C17.1428 47.7652 16.2789 46.9014 16.2789 45.8367L16.2789 21.0647ZM18.8504 20.6067C21.4729 19.6371 23.397 17.2269 23.6625 14.3367H34.2789V22.6938C34.2789 23.7585 35.1428 24.6224 36.2075 24.6224H44.5646V45.1938H18.8504V20.6067ZM37.674 14.9393C37.5334 14.7987 37.1919 14.6179 36.8504 14.4974V22.0509H44.4039C44.2834 21.7094 44.1026 21.3679 43.962 21.2273L37.674 14.9393ZM17.2789 14.6498H21.2789V12.6498H17.2789V8.64978H15.2789V12.6498H11.2789V14.6498H15.2789V18.6498H17.2789V14.6498Z" fill="white"/>
</svg>
