<svg width="55" height="55" viewBox="0 0 55 55" fill="none" xmlns="http://www.w3.org/2000/svg">
<path d="M23.9286 31.7858V29.8572H26.5V24.0715H26.4598C26.1384 24.5737 25.8371 24.7947 25.3549 25.2166L23.808 23.6094L26.7812 20.8572H29.0714V29.8572H31.6429V31.7858H23.9286ZM34.2143 26.6429C34.2143 22.9867 32.0045 18.2858 27.7857 18.2858C23.567 18.2858 21.3571 22.9867 21.3571 26.6429C21.3571 30.2992 23.567 35.0001 27.7857 35.0001C32.0045 35.0001 34.2143 30.2992 34.2143 26.6429ZM44.5 31.7858C41.6674 31.7858 39.3571 34.096 39.3571 36.9286H16.2143C16.2143 34.096 13.904 31.7858 11.0714 31.7858V21.5001C13.904 21.5001 16.2143 19.1898 16.2143 16.3572H39.3571C39.3571 19.1898 41.6674 21.5001 44.5 21.5001V31.7858ZM47.0714 15.0715C47.0714 14.3684 46.4888 13.7858 45.7857 13.7858H9.78571C9.08259 13.7858 8.5 14.3684 8.5 15.0715V38.2143C8.5 38.9175 9.08259 39.5001 9.78571 39.5001H45.7857C46.4888 39.5001 47.0714 38.9175 47.0714 38.2143V15.0715Z" fill="white"/>
</svg>
