<svg width="55" height="55" viewBox="0 0 55 55" fill="none" xmlns="http://www.w3.org/2000/svg">
<path d="M44.4286 38.8572C44.4286 39.1987 44.1272 39.5001 43.7857 39.5001H14.2143C13.8728 39.5001 13.5714 39.1987 13.5714 38.8572V23.4286C13.9933 23.9108 14.4554 24.3527 14.9576 24.7545C17.8304 26.9643 20.7232 29.2143 23.5156 31.5447C25.0223 32.8103 26.8906 34.3572 28.9799 34.3572H29H29.0201C31.1094 34.3572 32.9777 32.8103 34.4844 31.5447C37.2768 29.2143 40.1696 26.9643 43.0424 24.7545C43.5446 24.3527 44.0067 23.9108 44.4286 23.4286V38.8572ZM44.4286 17.7434C44.4286 19.4509 42.7813 21.6809 41.4754 22.7054C38.7835 24.8148 36.0915 26.9442 33.4196 29.0737C32.3549 29.9376 30.4263 31.7858 29.0201 31.7858H29H28.9799C27.5737 31.7858 25.6451 29.9376 24.5804 29.0737C21.9085 26.9442 19.2165 24.8148 16.5246 22.7054C14.7165 21.2791 13.5714 19.2902 13.5714 17.0001C13.5714 16.6585 13.8728 16.3572 14.2143 16.3572H43.7857C44.5491 16.3572 44.4286 17.2411 44.4286 17.7434ZM47 17.0001C47 15.2322 45.5536 13.7858 43.7857 13.7858H14.2143C12.4464 13.7858 11 15.2322 11 17.0001V38.8572C11 40.6251 12.4464 42.0715 14.2143 42.0715H43.7857C45.5536 42.0715 47 40.6251 47 38.8572V17.0001Z" fill="white"/>
</svg>
