<svg width="55" height="55" viewBox="0 0 55 55" fill="none" xmlns="http://www.w3.org/2000/svg">
<path d="M37.7857 35.2143C37.7857 36.6205 36.6205 37.7857 35.2143 37.7857C33.808 37.7857 32.6429 36.6205 32.6429 35.2143C32.6429 33.808 33.808 32.6428 35.2143 32.6428C36.6205 32.6428 37.7857 33.808 37.7857 35.2143ZM22.3571 19.7857C22.3571 21.1919 21.192 22.3571 19.7857 22.3571C18.3795 22.3571 17.2143 21.1919 17.2143 19.7857C17.2143 18.3794 18.3795 17.2143 19.7857 17.2143C21.192 17.2143 22.3571 18.3794 22.3571 19.7857ZM42.9286 35.2143C42.9286 30.9553 39.4732 27.5 35.2143 27.5C30.9554 27.5 27.5 30.9553 27.5 35.2143C27.5 39.4732 30.9554 42.9286 35.2143 42.9286C39.4732 42.9286 42.9286 39.4732 42.9286 35.2143ZM41 13.3571C41 12.654 40.4174 12.0714 39.7143 12.0714H36.5C36.0982 12.0714 35.7165 12.2723 35.4754 12.5937L14.2612 40.8794C14.1004 41.1004 14 41.3616 14 41.6428C14 42.346 14.5826 42.9286 15.2857 42.9286H18.5C18.9018 42.9286 19.2835 42.7277 19.5246 42.4062L40.7388 14.1205C40.8996 13.8995 41 13.6384 41 13.3571ZM27.5 19.7857C27.5 15.5268 24.0446 12.0714 19.7857 12.0714C15.5268 12.0714 12.0714 15.5268 12.0714 19.7857C12.0714 24.0446 15.5268 27.5 19.7857 27.5C24.0446 27.5 27.5 24.0446 27.5 19.7857Z" fill="white"/>
</svg>
