<svg width="55" height="55" viewBox="0 0 55 55" fill="none" xmlns="http://www.w3.org/2000/svg">
<path d="M33.9286 24.9285C33.9286 29.8906 29.8906 33.9285 24.9286 33.9285C19.9665 33.9285 15.9286 29.8906 15.9286 24.9285C15.9286 19.9664 19.9665 15.9285 24.9286 15.9285C29.8906 15.9285 33.9286 19.9664 33.9286 24.9285ZM44.2143 41.6428C44.2143 40.9598 43.933 40.2968 43.471 39.8348L36.5804 32.9441C38.2076 30.5937 39.0714 27.7812 39.0714 24.9285C39.0714 17.1138 32.7433 10.7856 24.9286 10.7856C17.1138 10.7856 10.7857 17.1138 10.7857 24.9285C10.7857 32.7432 17.1138 39.0714 24.9286 39.0714C27.7812 39.0714 30.5937 38.2075 32.9442 36.5803L39.8348 43.4508C40.2969 43.933 40.9598 44.2142 41.6429 44.2142C43.0491 44.2142 44.2143 43.049 44.2143 41.6428Z" fill="white"/>
</svg>
