<svg width="20" height="20" viewBox="0 0 20 20" fill="none" xmlns="http://www.w3.org/2000/svg">
<path fill-rule="evenodd" clip-rule="evenodd" d="M3.27988 9.9307C3.27988 8.94664 3.36308 8.32213 5.41815 6.80087C7.11953 5.54138 12.5731 1.23743 12.5731 1.23743V8.42209H16.7203V18.7627H4.57522C3.8628 18.7627 3.27968 18.1844 3.27968 17.4778L3.27988 9.93076V9.9307Z" fill="#3E9CDC"/>
<path fill-rule="evenodd" clip-rule="evenodd" d="M12.5731 8.422V12.585L4.95216 17.7335L14.5874 14.6246V8.422H12.5731Z" fill="black" fill-opacity="0.2"/>
<path fill-rule="evenodd" clip-rule="evenodd" d="M9.09046 8.20685C9.53615 7.68023 10.187 7.49436 10.5444 7.79173C10.9018 8.08915 10.8304 8.75719 10.3847 9.2838C9.93931 9.81035 9.28817 9.99602 8.93078 9.69859C8.5734 9.40123 8.64503 8.73333 9.09046 8.20678V8.20685Z" fill="#231F20"/>
</svg>
