<?xml version="1.0" encoding="utf-8"?><svg xmlns="http://www.w3.org/2000/svg" xmlns:xlink="http://www.w3.org/1999/xlink"><symbol xml:space="preserve" viewBox="0 0 32 32" id="burger" xmlns="http://www.w3.org/2000/svg"><path d="M4 10h24a2 2 0 0 0 0-4H4a2 2 0 0 0 0 4zm24 4H4a2 2 0 0 0 0 4h24a2 2 0 0 0 0-4zm0 8H4a2 2 0 0 0 0 4h24a2 2 0 0 0 0-4z"/></symbol><symbol xml:space="preserve" viewBox="0 0 512 512" id="close" xmlns="http://www.w3.org/2000/svg"><path d="M437.5 386.6 306.9 256l130.6-130.6c14.1-14.1 14.1-36.8 0-50.9-14.1-14.1-36.8-14.1-50.9 0L256 205.1 125.4 74.5c-14.1-14.1-36.8-14.1-50.9 0-14.1 14.1-14.1 36.8 0 50.9L205.1 256 74.5 386.6c-14.1 14.1-14.1 36.8 0 50.9 14.1 14.1 36.8 14.1 50.9 0L256 306.9l130.6 130.6c14.1 14.1 36.8 14.1 50.9 0 14-14.1 14-36.9 0-50.9z"/></symbol><symbol viewBox="0 0 55 55" id="contract" xmlns="http://www.w3.org/2000/svg"><path d="M23.993 29.122v-1.285c0-.362.282-.643.643-.643H38.78c.361 0 .643.281.643.643v1.285a.635.635 0 0 1-.643.643H24.636a.635.635 0 0 1-.643-.643Zm.643 3.215H38.78c.361 0 .643.28.643.642v1.286a.635.635 0 0 1-.643.643H24.636a.635.635 0 0 1-.643-.643V32.98c0-.362.282-.643.643-.643Zm0 5.143H38.78c.361 0 .643.28.643.642v1.286a.635.635 0 0 1-.643.643H24.636a.635.635 0 0 1-.643-.643v-1.286c0-.361.282-.642.643-.642Z"/><path fill-rule="evenodd" clip-rule="evenodd" d="M16.279 21.065a7.415 7.415 0 1 1 7.173-9.3h12.756c1.064 0 2.55.623 3.294 1.366L45.77 19.4c.743.743 1.366 2.23 1.366 3.295v23.143a1.93 1.93 0 0 1-1.928 1.928h-27a1.93 1.93 0 0 1-1.93-1.928V21.065Zm2.571-.458a7.421 7.421 0 0 0 4.813-6.27h10.616v8.357a1.93 1.93 0 0 0 1.928 1.928h8.358v20.572H18.85V20.607Zm18.824-5.668c-.14-.14-.482-.321-.824-.442v7.554h7.554c-.12-.342-.301-.683-.442-.824l-6.288-6.288Zm-20.395-.29h4v-2h-4v-4h-2v4h-4v2h4v4h2v-4Z"/></symbol><symbol viewBox="0 0 55 55" id="dollar" xmlns="http://www.w3.org/2000/svg"><path d="M23.929 31.786v-1.929H26.5v-5.785h-.04c-.322.502-.623.723-1.105 1.145l-1.547-1.608 2.973-2.752h2.29v9h2.572v1.929h-7.714Zm10.285-5.143c0-3.656-2.21-8.357-6.428-8.357-4.219 0-6.429 4.7-6.429 8.357 0 3.656 2.21 8.357 6.429 8.357 4.218 0 6.428-4.7 6.428-8.357ZM44.5 31.786a5.153 5.153 0 0 0-5.143 5.143H16.214a5.153 5.153 0 0 0-5.143-5.143V21.5a5.153 5.153 0 0 0 5.143-5.143h23.143A5.153 5.153 0 0 0 44.5 21.5v10.286Zm2.571-16.715c0-.703-.582-1.285-1.285-1.285h-36c-.703 0-1.286.582-1.286 1.286v23.142c0 .703.583 1.286 1.286 1.286h36c.703 0 1.285-.583 1.285-1.286V15.072Z"/></symbol><symbol viewBox="0 0 20 20" id="email" xmlns="http://www.w3.org/2000/svg"><path d="M16.429 14.85a.275.275 0 0 1-.268.267H3.839a.275.275 0 0 1-.268-.268V8.421c.176.2.369.385.578.552a112.81 112.81 0 0 1 3.566 2.83c.628.527 1.406 1.171 2.277 1.171h.016c.87 0 1.65-.644 2.277-1.172a114.78 114.78 0 0 1 3.566-2.829c.21-.167.402-.352.578-.552v6.428Zm0-8.798c0 .711-.687 1.64-1.23 2.067a520.296 520.296 0 0 0-3.357 2.654c-.444.36-1.248 1.13-1.834 1.13h-.016c-.586 0-1.39-.77-1.834-1.13a518.373 518.373 0 0 0-3.356-2.654c-.753-.594-1.23-1.423-1.23-2.377 0-.142.125-.268.267-.268h12.322c.318 0 .268.368.268.578Zm1.071-.31c0-.737-.603-1.34-1.34-1.34H3.84c-.737 0-1.34.603-1.34 1.34v9.107c0 .737.603 1.34 1.34 1.34h12.32c.737 0 1.34-.603 1.34-1.34V5.742Z"/></symbol><symbol viewBox="0 0 55 56" id="file" xmlns="http://www.w3.org/2000/svg"><path d="M23.993 29.372v-1.285c0-.362.282-.643.643-.643H38.78c.361 0 .643.281.643.643v1.285a.635.635 0 0 1-.643.643H24.636a.635.635 0 0 1-.643-.643Zm.643 3.215H38.78c.361 0 .643.281.643.643v1.285a.635.635 0 0 1-.643.643H24.636a.635.635 0 0 1-.643-.643V33.23c0-.362.282-.643.643-.643Zm0 5.143H38.78c.361 0 .643.28.643.642v1.286a.635.635 0 0 1-.643.643H24.636a.635.635 0 0 1-.643-.643v-1.286c0-.361.282-.642.643-.642Z"/><path fill-rule="evenodd" clip-rule="evenodd" d="M16.279 21.315a7.415 7.415 0 1 1 7.173-9.3h12.756c1.064 0 2.55.623 3.294 1.366l6.268 6.268c.743.743 1.366 2.23 1.366 3.295v23.143a1.93 1.93 0 0 1-1.928 1.928h-27a1.93 1.93 0 0 1-1.93-1.928V21.315Zm2.571-.458a7.421 7.421 0 0 0 4.813-6.27h10.616v8.357a1.93 1.93 0 0 0 1.928 1.928h8.358v20.572H18.85V20.857Zm18.824-5.668c-.14-.14-.482-.321-.824-.442v7.554h7.554c-.12-.341-.301-.683-.442-.824l-6.288-6.288Zm-20.395-.29h4v-2h-4v-4h-2v4h-4v2h4v4h2v-4Z"/></symbol><symbol viewBox="0 0 18 21" id="input-file" xmlns="http://www.w3.org/2000/svg"><path d="M16.813 4.609 13.33 1.127c-.413-.413-1.239-.76-1.83-.76h-10A1.073 1.073 0 0 0 .429 1.44v17.858c0 .591.48 1.07 1.071 1.07h15a1.07 1.07 0 0 0 1.071-1.07V6.439c0-.591-.346-1.417-.759-1.83Zm-4.956-2.723c.19.067.38.167.458.245l3.493 3.494c.078.078.179.267.246.457h-4.197V1.886Zm4.286 17.053H1.857V1.796h8.572V6.44c0 .592.48 1.072 1.071 1.072h4.643V18.94ZM4.714 9.296v.715c0 .2.157.357.357.357h7.858c.2 0 .357-.156.357-.357v-.715c0-.2-.156-.357-.357-.357H5.07c-.2 0-.357.157-.357.357Zm8.215 2.5H5.07c-.2 0-.357.157-.357.358v.714c0 .2.157.357.357.357h7.858c.2 0 .357-.156.357-.357v-.714a.352.352 0 0 0-.357-.357Zm0 2.858H5.07c-.2 0-.357.156-.357.357v.714c0 .201.157.357.357.357h7.858c.2 0 .357-.156.357-.357v-.714a.352.352 0 0 0-.357-.357Z"/></symbol><symbol viewBox="0 0 55 55" id="letter" xmlns="http://www.w3.org/2000/svg"><path d="M44.429 38.857a.661.661 0 0 1-.643.643H14.214a.661.661 0 0 1-.643-.643V23.43c.422.482.884.924 1.387 1.326 2.872 2.21 5.765 4.46 8.558 6.79 1.506 1.265 3.375 2.812 5.464 2.812h.04c2.09 0 3.958-1.547 5.464-2.812 2.793-2.33 5.686-4.58 8.558-6.79.503-.402.965-.844 1.387-1.326v15.428Zm0-21.114c0 1.708-1.648 3.938-2.954 4.962a1247.75 1247.75 0 0 0-8.055 6.369c-1.065.864-2.994 2.712-4.4 2.712h-.04c-1.406 0-3.335-1.848-4.4-2.712a1247.75 1247.75 0 0 0-8.055-6.369C14.717 21.28 13.57 19.29 13.57 17c0-.341.302-.643.643-.643h29.572c.763 0 .643.884.643 1.386ZM47 17a3.224 3.224 0 0 0-3.214-3.214H14.214A3.224 3.224 0 0 0 11 17v21.857a3.224 3.224 0 0 0 3.214 3.215h29.572A3.224 3.224 0 0 0 47 38.856V17Z"/></symbol><symbol viewBox="0 0 55 55" id="percent" xmlns="http://www.w3.org/2000/svg"><path d="M37.786 35.214a2.59 2.59 0 0 1-2.572 2.572 2.59 2.59 0 0 1-2.571-2.572 2.59 2.59 0 0 1 2.571-2.571 2.59 2.59 0 0 1 2.572 2.571ZM22.357 19.786a2.59 2.59 0 0 1-2.571 2.571 2.59 2.59 0 0 1-2.572-2.571 2.59 2.59 0 0 1 2.572-2.572 2.59 2.59 0 0 1 2.571 2.572ZM42.93 35.214a7.716 7.716 0 0 0-7.715-7.714 7.716 7.716 0 0 0-7.714 7.714 7.716 7.716 0 0 0 7.714 7.715 7.716 7.716 0 0 0 7.715-7.715ZM41 13.357c0-.703-.583-1.286-1.286-1.286H36.5c-.402 0-.783.201-1.025.523L14.261 40.879c-.16.221-.261.483-.261.764 0 .703.583 1.286 1.286 1.286H18.5c.402 0 .784-.201 1.025-.523l21.214-28.285c.16-.222.261-.483.261-.764Zm-13.5 6.429a7.716 7.716 0 0 0-7.714-7.715 7.716 7.716 0 0 0-7.715 7.715 7.716 7.716 0 0 0 7.715 7.714 7.716 7.716 0 0 0 7.714-7.714Z"/></symbol><symbol viewBox="0 0 20 20" id="qiwi" xmlns="http://www.w3.org/2000/svg"><g clip-path="url(#ja)"><path d="M16.412 13.456c.06.388-.067.552-.195.552s-.314-.158-.521-.47c-.207-.313-.278-.661-.178-.84a.288.288 0 0 1 .17-.126.297.297 0 0 1 .213.022c.341.124.475.63.51.862Zm-1.888.85c.41.335.535.733.318 1.013a.667.667 0 0 1-.549.238.998.998 0 0 1-.626-.218c-.372-.314-.481-.825-.238-1.114a.534.534 0 0 1 .434-.176c.245.008.479.099.661.257Zm-.684 3.23c1.762 0 3.674.585 5.791 2.4.212.18.493-.045.309-.27-2.08-2.54-4.008-3.025-5.922-3.433-2.346-.502-3.554-1.78-4.4-3.182-.166-.279-.242-.23-.257.13a7.655 7.655 0 0 0 .124 1.59H9.2a6.226 6.226 0 0 1-3.377-.992 5.927 5.927 0 0 1-2.238-2.639 5.701 5.701 0 0 1-.346-3.397A5.823 5.823 0 0 1 4.9 4.733a6.145 6.145 0 0 1 3.112-1.61 6.27 6.27 0 0 1 3.512.335 6.04 6.04 0 0 1 2.728 2.166 5.744 5.744 0 0 1 .986 3.95 9.379 9.379 0 0 0-1.93-.035c-.232.02-.198.13-.024.154 2.003.35 3.39 1.55 3.705 3.74a.052.052 0 0 0 .014.03.057.057 0 0 0 .063.014.055.055 0 0 0 .025-.021 8.658 8.658 0 0 0 1.24-5.608 8.78 8.78 0 0 0-2.554-5.176 9.31 9.31 0 0 0-5.29-2.59A9.46 9.46 0 0 0 4.665 1.15a9.001 9.001 0 0 0-3.94 4.286 8.625 8.625 0 0 0-.417 5.72 8.884 8.884 0 0 0 3.28 4.779A9.399 9.399 0 0 0 9.2 17.784c1.343.004 2.68-.25 4.641-.25v.002Z"/></g><defs><clipPath id="ja"><path d="M0 0h20v20H0z"/></clipPath></defs></symbol><symbol viewBox="0 0 55 55" id="search" xmlns="http://www.w3.org/2000/svg"><path d="M33.929 24.928c0 4.963-4.038 9-9 9s-9-4.037-9-9c0-4.962 4.037-9 9-9 4.962 0 9 4.038 9 9Zm10.285 16.715c0-.683-.281-1.346-.743-1.808l-6.89-6.89a14.11 14.11 0 0 0 2.49-8.017c0-7.814-6.328-14.142-14.142-14.142-7.815 0-14.143 6.328-14.143 14.143 0 7.814 6.328 14.142 14.143 14.142a14.11 14.11 0 0 0 8.015-2.49l6.89 6.87a2.521 2.521 0 0 0 1.809.763 2.59 2.59 0 0 0 2.571-2.571Z"/></symbol><symbol viewBox="0 0 20 20" id="vk" xmlns="http://www.w3.org/2000/svg"><path d="M14.846 12.286c0 .65-.123 1.222-.37 1.714a3.49 3.49 0 0 1-.993 1.222 4.598 4.598 0 0 1-1.626.826c-.585.164-1.332.246-2.24.246h-5.24V3.207H9c.961 0 1.688.038 2.18.114.498.07.964.223 1.397.457.469.252.818.59 1.046 1.011.234.422.352.908.352 1.46 0 .638-.161 1.206-.484 1.704a2.793 2.793 0 0 1-1.318 1.099v.07c.809.17 1.456.519 1.942 1.046.487.522.73 1.228.73 2.118Zm-4.21-5.379c0-.21-.056-.427-.167-.65a.961.961 0 0 0-.501-.483 2.042 2.042 0 0 0-.774-.15 36.06 36.06 0 0 0-1.318-.017h-.228v2.768h.413c.562 0 .955-.006 1.177-.017a1.92 1.92 0 0 0 .704-.185c.263-.123.445-.293.544-.51.1-.217.15-.469.15-.756Zm.826 5.318c0-.405-.082-.721-.246-.95-.164-.228-.41-.4-.738-.518-.2-.076-.475-.117-.827-.123a43.486 43.486 0 0 0-1.397-.018h-.606v3.279h.175c.856 0 1.448-.006 1.776-.018a2.77 2.77 0 0 0 1.002-.237c.298-.13.515-.317.65-.563.14-.252.211-.536.211-.852Z"/></symbol><symbol viewBox="0 0 20 20" id="web-money" xmlns="http://www.w3.org/2000/svg"><g clip-path="url(#ma)"><path d="M8.84 0a9.12 9.12 0 0 1 3.957.901c.189.085.379.187.567.29l-.826.73L11.301.647l-2.133 1.87-1.256-1.343L3.99 4.66l2.511 2.737-.98.85 2.477 2.738-.98.85 3.543 3.893 2.098-1.904 1.824 2.04c-.362.273-.758.546-1.187.783a9.07 9.07 0 0 1-4.438 1.156c-4.971 0-9.012-3.995-9.012-8.909C-.172 4.013 3.87 0 8.84 0ZM7.19 8.349l2.15-1.905 1.926 2.126-2.15 1.904-1.927-2.125Zm1.53 3.672 2.133-1.92 1.944 2.124-2.15 1.905-1.927-2.11ZM5.66 4.727l2.149-1.904 1.926 2.125-2.15 1.904L5.66 4.727Zm3.937-1.02 1.6-1.429 1.445 1.582-1.6 1.445-1.445-1.598Zm2.856 6.546 1.6-1.428 1.444 1.597-1.6 1.43-1.444-1.6Zm1.41 3.214 1.6-1.429 1.444 1.582-1.6 1.444-1.444-1.597Zm.654-7.346 1.066-.952.963 1.054-1.066.952-.963-1.054ZM13.14 2.975l1.066-.968.964 1.07-1.067.953-.963-1.055Zm2.735 6.292 1.066-.952.98 1.054-1.083.952-.963-1.054Zm-4.8-2.364 1.6-1.428 1.445 1.581-1.599 1.429-1.445-1.582Z"/></g><defs><clipPath id="ma"><path d="M0 0h20v20H0z"/></clipPath></defs></symbol><symbol viewBox="0 0 20 20" id="yandex-money" xmlns="http://www.w3.org/2000/svg"><path fill-rule="evenodd" clip-rule="evenodd" d="M3.28 9.93c0-.983.083-1.608 2.138-3.13 1.702-1.259 7.155-5.563 7.155-5.563v7.185h4.147v10.34H4.575a1.294 1.294 0 0 1-1.295-1.284V9.93Z"/><path fill-rule="evenodd" clip-rule="evenodd" d="M12.573 8.422v4.163l-7.62 5.148 9.634-3.108V8.422h-2.014Z" fill-opacity=".2"/><path fill-rule="evenodd" clip-rule="evenodd" d="M9.09 8.207c.446-.527 1.097-.713 1.454-.415.358.297.286.965-.16 1.492-.445.526-1.096.712-1.453.415-.358-.298-.286-.966.16-1.492Z"/></symbol></svg>